# xmcd
#
# Track frame offsets:
#	150
#	21268
#	44043
#	68370
#	81629
#	97787
#	122604
#	139713
#	162937
#	181435
#	202804
#
# Disc length: 2895 seconds
#
# Revision: 1
# Processed by: cddbd v1.5.2PL0 Copyright (c) Steve Scherf et al.
# Submitted via: audiograbber 1.83.01
#
DISCID=8e0b4d0b
DTITLE=Bruce,Jack&Trower,Robin - Seven moons
DYEAR=2011
DGENRE=Blues
TTITLE0=Seven moons
TTITLE1=Lives of clay
TTITLE2=Distant places of the heart
TTITLE3=She's not the one
TTITLE4=So far to yesterday
TTITLE5=Just another day
TTITLE6=Perfect place
TTITLE7=The last door
TTITLE8=Bad case of celebrity
TTITLE9=Come to me
TTITLE10=I'm home
EXTD=
EXTT0=
EXTT1=
EXTT2=
EXTT3=
EXTT4=
EXTT5=
EXTT6=
EXTT7=
EXTT8=
EXTT9=
EXTT10=
PLAYORDER=
